HIERARCHY
ROOT pelvis
{
  OFFSET 0 100 0
  CHANNELS 6 Xposition Yposition Zposition Zrotation Xrotation Yrotation
  JOINT pelvis_right_femur
  {
    OFFSET -10.78128 -3.44521 -0.5502486
    CHANNELS 3 Zrotation Xrotation Yrotation
    JOINT right_femur_tibia
    {
      OFFSET -0.8047443 -44.0398 -0.1307829
      CHANNELS 3 Zrotation Xrotation Yrotation
      JOINT right_tibia_foot
      {
        OFFSET 3.006224 -47.83518 -5
        CHANNELS 3 Zrotation Xrotation Yrotation
        End Site
        {
          OFFSET 0 -5 15
        }
      }
    }
  }
  JOINT pelvis_left_femur
  {
    OFFSET 10.78128 -3.44521 -0.5502486
    CHANNELS 3 Zrotation Xrotation Yrotation
    JOINT left_femur_tibia
    {
      OFFSET 0.8047443 -44.0398 -0.1307829
      CHANNELS 3 Zrotation Xrotation Yrotation
      JOINT left_tibia_foot
      {
        OFFSET -4.370144 -48.10324 -4.275266
        CHANNELS 3 Zrotation Xrotation Yrotation
        End Site
        {
          OFFSET 0 -5 15
        }
      }
    }
  }
  JOINT pelvis_spine1
  {
    OFFSET 0 6.468898 -3.129235
    CHANNELS 3 Zrotation Xrotation Yrotation
    JOINT spine1
    {
      OFFSET 0 23.15396 4.99043
      CHANNELS 3 Zrotation Xrotation Yrotation
      JOINT spine2
      {
        OFFSET 0 20.79997 -5.064912
        CHANNELS 3 Zrotation Xrotation Yrotation
        JOINT neck
        {
          OFFSET 0 14.38658 9.616178
          CHANNELS 3 Zrotation Xrotation Yrotation
          End Site
          {
            OFFSET 0 20 0
          }
        }
      }
      JOINT right_manubrium
      {
        OFFSET -5.722621 16.35077 3.967754
        CHANNELS 3 Zrotation Xrotation Yrotation
        JOINT right_clavicle
        {
          OFFSET -13.16364 1.694482 -4.693211
          CHANNELS 3 Zrotation Xrotation Yrotation
          JOINT right_humerus
          {
            OFFSET -28.5034 -0.3100689 -2.792744
            CHANNELS 3 Zrotation Xrotation Yrotation
            JOINT right_radius
            {
              OFFSET -25.15693 0.02248979 -1.271978
              CHANNELS 3 Zrotation Xrotation Yrotation
              End Site
              {
                OFFSET -15 0 0
              }
            }
          }
        }
      }
      JOINT left_manubrium
      {
        OFFSET 5.722621 16.35077 3.967754
        CHANNELS 3 Zrotation Xrotation Yrotation
        JOINT left_clavicle
        {
          OFFSET 13.16364 1.694482 -4.693211
          CHANNELS 3 Zrotation Xrotation Yrotation
          JOINT left_humerus
          {
            OFFSET 29.39168 -1.063119 -2.237045
            CHANNELS 3 Zrotation Xrotation Yrotation
            JOINT left_radius
            {
              OFFSET 24.59957 -0.9528479 0.9047498
              CHANNELS 3 Zrotation Xrotation Yrotation
              End Site
              {
                OFFSET 15 -0 -0
              }
            }
          }
        }
      }
    }
  }
}
MOTION
Frames: 11
Frame Time: 0.0416666666667
0 103.5113 0 1.830621 0.7907213 0.1065179 2.657025 -16.98512 11.16001 -0 39.62521 -0 -5.42818 -19.1432 -2.879722 -8.098425 8.469084 -23.94415 -0 4.217246 -0 15.11567 -13.45264 29.38944 -4.783803 -4.144772 5.640933 2.835536 9.737923 -7.493341 1.602413 21.585 6.183437 2.530785 -24.92869 9.855575 7.345485 -19.98752 11.63797 84.2896 39.46307 -17.2023 -0 0 17.34484 -4.56448 7.187336 3.852138 5.411245 -18.48756 -0.5080128 -91.47267 20.94902 19.99998 0 0 -14.00984 15.86133 13.02707 -4.457942
0.4157402 103.6724 1.525981 1.591488 1.097545 0.2324396 3.207226 -18.47047 10.86378 -0 37.82592 -0 -5.42052 -18.44383 -2.762007 -7.970601 8.847248 -23.44709 -0 4.361359 -0 15.05218 -13.82969 29.05391 -4.585512 -4.004658 5.591984 2.951785 9.800048 -7.628713 1.541314 21.41563 6.237756 2.56468 -25.1807 9.820813 7.114377 -20.05735 11.62792 84.62157 39.24862 -17.63566 -0 0 17.10362 -4.557286 7.077302 3.83361 5.60473 -18.80655 -0.6225113 -91.31585 20.80741 19.89155 0 0 -15.01821 15.91708 12.7336 -4.480334
0.8425519 103.1743 4.368752 0.3641993 -0.334992 0.4149411 3.431718 -25.6175 2.613963 -0 27.36401 -0 -7.507888 -6.428923 -0.179318 -6.554696 11.30155 -18.43612 -0 5.974285 -0 8.729874 -18.22144 22.0192 -2.84061 -2.277151 3.905789 2.238368 10.65053 -7.571432 0.8441038 21.65525 7.267819 4.170734 -23.87261 8.256189 5.232088 -19.51616 11.93383 86.80566 33.47439 -19.59836 -0 0 13.90208 -12.0734 8.537073 6.308264 7.397258 -22.44435 -3.801965 -89.83204 20.35351 17.59701 0 0 -20.37068 13.75247 15.47559 -2.734837
1.223432 102.6329 7.721927 -0.004316937 0.380601 0.5791181 3.986619 -29.00028 1.367414 -0 22.26462 -0 -7.777021 -4.345703 0.3904472 -6.330894 12.31908 -16.87021 -0 7.090116 -0 8.427815 -18.89178 20.6407 -2.497521 -2.092573 3.769493 2.431176 10.84821 -7.900642 0.727524 21.31835 7.279276 4.293946 -24.10658 8.000214 4.813574 -19.33645 11.86795 87.52837 33.0378 -20.66821 -0 0 12.95359 -12.45571 8.528489 6.301745 7.918069 -23.47999 -4.030308 -88.91269 19.25231 16.44455 0 0 -22.61967 14.83627 14.70688 -3.986265
1.545415 101.9949 11.69047 -0.3682912 1.258689 0.8157273 4.598043 -32.44191 0.2246555 -0 16.65666 -0 -8.029264 -1.785474 0.9583726 -6.160739 13.59843 -15.09231 -0 8.788346 -0 8.097632 -19.54437 19.17156 -2.217853 -1.97833 3.594631 2.685257 11.0426 -8.276446 0.6578056 20.99235 7.243415 4.308244 -24.43869 7.832734 4.384188 -19.01056 11.77384 88.48979 32.72034 -21.98857 -0 0 11.51761 -12.79409 8.720491 6.366128 8.348825 -24.56694 -4.13536 -87.83881 18.28824 15.05846 0 0 -25.20813 15.88206 13.78467 -5.031563
1.829698 101.1892 16.29297 -0.4160776 1.349257 1.116473 4.28031 -34.49862 -2.000243 -0 11.87162 -0 -8.806333 1.78811 1.892168 -6.125769 14.50978 -12.90748 -0 10.47385 -0 7.729817 -19.94128 17.4383 -2.095497 -1.904189 3.344164 2.677405 11.51014 -8.483262 0.4984997 20.93317 7.233514 4.48536 -24.13642 7.347426 3.894099 -18.64319 11.82545 89.50628 31.65884 -23.0477 -0 0 9.764666 -14.41756 9.062334 6.899772 8.831102 -26.05894 -4.631917 -86.51524 16.40395 13.12739 0 0 -27.36294 17.50815 13.1179 -7.006804
2.086763 100.1973 21.47955 -0.1774593 0.7267082 1.45148 3.239557 -35.19487 -4.874125 -0 7.872359 -0 -9.724421 5.254335 2.824161 -6.175385 15.27942 -10.69608 -0 11.83106 -0 7.207178 -20.24432 15.70789 -2.117556 -1.892462 3.040583 2.446822 12.01372 -8.519965 0.3364763 21.16379 7.200747 4.699422 -23.24038 6.707248 3.299273 -18.17751 11.91184 90.48366 29.95305 -23.8106 -0 0 7.893145 -16.90532 9.542833 7.729058 9.313002 -27.6522 -5.34072 -85.14999 14.2604 10.76441 0 0 -29.13517 19.11136 12.90751 -9.201404
2.31925 99.07038 27.19198 0.2429486 -0.308688 1.801954 2.082186 -34.75627 -7.567376 -0 4.673939 -0 -10.52252 8.016774 3.468435 -6.301652 15.97113 -8.663986 -0 13.17514 -0 6.840181 -20.29332 14.39684 -2.239631 -2.001755 2.778197 2.128203 12.48708 -8.466596 0.216948 21.56764 7.109461 4.828172 -22.06287 6.085018 2.591431 -17.69838 11.98052 91.47728 27.9503 -24.39803 -0 0 6.007585 -19.55049 10.00108 8.60916 9.69313 -29.13539 -6.055942 -83.90627 12.12226 8.29781 0 0 -30.67097 20.55678 12.85753 -11.29907
2.52106 97.88191 33.36102 0.7369956 -1.630261 2.144928 1.20112 -33.28191 -9.580018 -0 2.473408 -0 -11.04262 9.772258 3.594346 -6.434336 16.60371 -7.000122 -0 14.80662 -0 6.461697 -20.05336 13.56744 -2.361065 -2.217811 2.571377 1.762194 12.83096 -8.326775 0.1945848 22.11009 6.945261 4.795019 -20.77851 5.612489 1.727092 -17.23411 11.98238 92.51645 25.71595 -24.82148 -0 0 4.20658 -21.99788 10.37816 9.437488 9.858958 -30.28776 -6.700433 -82.89433 10.4976 6.029003 0 0 -31.93652 21.38529 13.07556 -12.63341
2.676015 96.75009 39.87224 1.144593 -3.132839 2.431317 0.9301357 -30.82974 -10.42793 -0 1.801622 -0 -11.19778 10.08862 2.971015 -6.438295 17.07171 -6.002284 -0 17.21828 -0 5.773245 -19.39754 13.19756 -2.315058 -2.493472 2.431653 1.366367 12.92653 -8.079594 0.3394225 22.75283 6.686992 4.53126 -19.57589 5.427321 0.6793644 -16.82463 11.86581 93.5623 23.32356 -24.99613 -0 0 2.759093 -23.83565 10.61513 10.06531 9.667676 -30.7906 -7.218837 -82.23573 10.01017 4.412957 0 0 -32.6338 21.05875 13.80552 -12.44776
2.751397 95.87488 46.55276 1.212538 -4.590941 2.568998 1.56395 -27.61628 -9.664961 -0 3.258903 -0 -11.06157 8.588993 1.488554 -6.118662 17.12707 -5.996546 -0 21.33488 -0 4.443792 -18.0965 13.15399 -1.877179 -2.738048 2.371307 0.9867667 12.67169 -7.721147 0.729685 23.40247 6.302253 3.973735 -18.77034 5.678981 -0.5042271 -16.51547 11.59315 94.52493 21.04132 -24.81903 -0 0 2.039563 -24.49941 10.70735 10.28814 8.952262 -30.26626 -7.524224 -82.11891 11.31642 4.105617 0 0 -32.28053 19.07095 15.19559 -9.992951
